<?xml version="1.0" encoding="iso-8859-1"?>
<!-- Generator: Adobe Illustrator 18.0.0, SVG Export Plug-In . SVG Version: 6.00 Build 0)  -->
<!DOCTYPE svg PUBLIC "-//W3C//DTD SVG 1.1//EN" "http://www.w3.org/Graphics/SVG/1.1/DTD/svg11.dtd">
<svg version="1.1" id="Capa_1" xmlns="http://www.w3.org/2000/svg" xmlns:xlink="http://www.w3.org/1999/xlink" x="0px" y="0px"
	 viewBox="0 0 60 60" style="enable-background:new 0 0 60 60;" xml:space="preserve">
<g>
	<path style="fill:#D1D4D1;" d="M16,13H8c-0.552,0-1-0.447-1-1s0.448-1,1-1h8c0.552,0,1,0.447,1,1S16.552,13,16,13z"/>
	<path style="fill:#D1D4D1;" d="M3,13c-0.26,0-0.52-0.11-0.71-0.29C2.11,12.52,2,12.27,2,12c0-0.271,0.11-0.53,0.29-0.71
		c0.37-0.37,1.04-0.37,1.42,0C3.89,11.479,4,11.729,4,12c0,0.26-0.11,0.52-0.29,0.71C3.52,12.89,3.26,13,3,13z"/>
	<path style="fill:#D1D4D1;" d="M6,8H3C2.448,8,2,7.553,2,7s0.448-1,1-1h3c0.552,0,1,0.447,1,1S6.552,8,6,8z"/>
	<path style="fill:#D1D4D1;" d="M16,8h-2c-0.552,0-1-0.447-1-1s0.448-1,1-1h2c0.552,0,1,0.447,1,1S16.552,8,16,8z"/>
	<path style="fill:#D1D4D1;" d="M10,8C9.74,8,9.48,7.89,9.29,7.71C9.11,7.52,9,7.26,9,7s0.11-0.521,0.29-0.71
		c0.38-0.37,1.04-0.37,1.42,0C10.89,6.479,11,6.74,11,7s-0.11,0.52-0.29,0.71C10.52,7.89,10.26,8,10,8z"/>
	<rect x="4" y="44" style="fill:#F0C419;" width="8" height="15"/>
	<rect x="15" y="44" style="fill:#F0C419;" width="8" height="15"/>
	<rect x="26" y="44" style="fill:#F0C419;" width="8" height="15"/>
	<rect x="37" y="44" style="fill:#F0C419;" width="8" height="15"/>
	<rect x="48" y="44" style="fill:#F0C419;" width="8" height="15"/>
	<rect x="4" y="39" style="fill:#71C285;" width="8" height="5"/>
	<rect x="15" y="29" style="fill:#71C285;" width="8" height="15"/>
	<rect x="26" y="23" style="fill:#71C285;" width="8" height="21"/>
	<rect x="37" y="34" style="fill:#71C285;" width="8" height="10"/>
	<rect x="48" y="13" style="fill:#71C285;" width="8" height="31"/>
	<path style="fill:#556080;" d="M59,2H1C0.448,2,0,1.553,0,1s0.448-1,1-1h58c0.553,0,1,0.447,1,1S59.553,2,59,2z"/>
	<path style="fill:#556080;" d="M59,60H1c-0.552,0-1-0.447-1-1s0.448-1,1-1h58c0.553,0,1,0.447,1,1S59.553,60,59,60z"/>
</g>
<g>
</g>
<g>
</g>
<g>
</g>
<g>
</g>
<g>
</g>
<g>
</g>
<g>
</g>
<g>
</g>
<g>
</g>
<g>
</g>
<g>
</g>
<g>
</g>
<g>
</g>
<g>
</g>
<g>
</g>
</svg>
