<?xml version="1.0" encoding="iso-8859-1"?>
<!-- Generator: Adobe Illustrator 19.0.0, SVG Export Plug-In . SVG Version: 6.00 Build 0)  -->
<svg version="1.1" id="Capa_1" xmlns="http://www.w3.org/2000/svg" xmlns:xlink="http://www.w3.org/1999/xlink" x="0px" y="0px"
	 viewBox="0 0 512 512" style="enable-background:new 0 0 512 512;" xml:space="preserve">
<g>
	<circle style="fill:#F46B27;" cx="128" cy="290.133" r="17.067"/>
	<circle style="fill:#F46B27;" cx="230.4" cy="349.867" r="17.067"/>
	<circle style="fill:#F46B27;" cx="332.8" cy="247.467" r="17.067"/>
	<path style="fill:#F46B27;" d="M31.573,398.592l-11.947-12.117l103.424-102.4c2.756-2.722,6.989-3.243,10.325-1.28l95.659,56.405
		l97.707-97.792c3.123-3.132,8.132-3.354,11.52-0.512l102.4,85.333l-10.923,13.141l-96.427-80.384l-96.853,96.939
		c-2.765,2.765-7.057,3.285-10.411,1.28L130.389,300.8L31.573,398.592z"/>
</g>
<g>
	<circle style="fill:#FDB62F;" cx="128" cy="179.2" r="17.067"/>
	<circle style="fill:#FDB62F;" cx="221.867" cy="76.8" r="17.067"/>
	<circle style="fill:#FDB62F;" cx="332.8" cy="110.933" r="17.067"/>
	<path style="fill:#FDB62F;" d="M31.317,279.381l-11.435-12.629l101.291-91.733l94.379-102.912c2.176-2.33,5.47-3.251,8.533-2.389
		l107.349,32l99.499-57.856l8.533,14.677l-102.4,59.733c-2.031,1.203-4.471,1.51-6.741,0.853L224.512,87.552l-91.307,99.584
		L31.317,279.381z"/>
</g>
<g>
	<path style="fill:#4398D1;" d="M512,443.733H25.6c-4.71,0-8.533-3.823-8.533-8.533V0h17.067v426.667H512V443.733z"/>
	<rect y="324.267" style="fill:#4398D1;" width="25.6" height="17.067"/>
	<rect y="221.867" style="fill:#4398D1;" width="25.6" height="17.067"/>
	<rect y="119.467" style="fill:#4398D1;" width="25.6" height="17.067"/>
	<rect x="324.267" y="435.2" style="fill:#4398D1;" width="17.067" height="25.6"/>
	<rect x="221.867" y="435.2" style="fill:#4398D1;" width="17.067" height="25.6"/>
	<rect x="119.467" y="435.2" style="fill:#4398D1;" width="17.067" height="25.6"/>
	<rect x="426.667" y="435.2" style="fill:#4398D1;" width="17.067" height="25.6"/>
</g>
<g>
	<rect x="162.133" y="494.933" style="fill:#87CED9;" width="17.067" height="17.067"/>
	<rect x="196.267" y="494.933" style="fill:#87CED9;" width="17.067" height="17.067"/>
	<rect x="230.4" y="494.933" style="fill:#87CED9;" width="17.067" height="17.067"/>
	<rect x="264.533" y="494.933" style="fill:#87CED9;" width="17.067" height="17.067"/>
	<rect x="298.667" y="494.933" style="fill:#87CED9;" width="17.067" height="17.067"/>
	<rect x="332.8" y="494.933" style="fill:#87CED9;" width="17.067" height="17.067"/>
</g>
<rect y="17.067" style="fill:#4398D1;" width="25.6" height="17.067"/>
<circle style="fill:#F46B27;" cx="435.2" cy="332.8" r="17.067"/>
<circle style="fill:#FDB62F;" cx="435.2" cy="51.2" r="17.067"/>
<g>
</g>
<g>
</g>
<g>
</g>
<g>
</g>
<g>
</g>
<g>
</g>
<g>
</g>
<g>
</g>
<g>
</g>
<g>
</g>
<g>
</g>
<g>
</g>
<g>
</g>
<g>
</g>
<g>
</g>
</svg>
