<?xml version="1.0" encoding="utf-8"?>
<!-- Generator: Adobe Illustrator 21.1.0, SVG Export Plug-In . SVG Version: 6.00 Build 0)  -->
<svg version="1.1" id="레이어_1" xmlns="http://www.w3.org/2000/svg" xmlns:xlink="http://www.w3.org/1999/xlink" x="0px"
	 y="0px" viewBox="0 0 99.3 32.8" style="enable-background:new 0 0 99.3 32.8;" xml:space="preserve">
<style type="text/css">
	.st0{fill:#EA5504;}
	.st1{fill:#ffffff;}
</style>
<path class="st0" d="M60.5,6.3c-5.9,0-10.6,4.7-10.6,10.6c0,5.8,4.7,10.6,10.6,10.6c5.9,0,10.6-4.7,10.6-10.6
	C71,11,66.3,6.3,60.5,6.3z M60.5,22.1c-2.9,0-5.2-2.3-5.2-5.2c0-2.9,2.3-5.2,5.2-5.2c2.9,0,5.2,2.3,5.2,5.2
	C65.7,19.8,63.3,22.1,60.5,22.1z"/>
<path class="st1" d="M26.3,7.7h-19C6.7,7.7,6.7,8,6.7,8s0,0.2,0.2,0.4c0.7,0.3,1.1,0.8,1.2,1.7v2.2c0,0.4,0.3,0.7,0.7,0.7h5.3
	c0.4,0,0.7,0.3,0.7,0.7v11.6c0,0.4,0.3,0.7,0.7,0.7h4c0.4,0,0.7-0.3,0.7-0.7V13.8c0-0.4,0.3-0.7,0.7-0.7h5.3c0.4,0,0.7-0.3,0.7-0.7
	v-4C27,8,26.7,7.7,26.3,7.7z"/>
<path class="st1" d="M93.2,25.4c-0.7-0.3-1.1-0.8-1.2-1.8V8.4c0-0.4-0.3-0.7-0.7-0.7h-4c-0.4,0-0.7,0.3-0.7,0.7v8.5
	c0,0.4-0.2,0.5-0.4,0.2l-7.1-8.8c-0.2-0.3-0.8-0.5-1.1-0.5h-4.1c-0.4,0-0.7,0.3-0.7,0.7v17c0,0.4,0.3,0.7,0.7,0.7h4
	c0.4,0,0.7-0.3,0.7-0.7v-8.5c0-0.4,0.2-0.5,0.4-0.2l7.2,8.8c0.2,0.3,0.8,0.5,1.1,0.5h3.9v0h1.7c0.6,0,0.6-0.4,0.6-0.4
	S93.5,25.5,93.2,25.4z"/>
<path class="st1" d="M50.3,25.3c-0.5-0.3-0.8-0.7-1-1.4l-4-15.5c-0.1-0.4-0.4-0.7-0.7-0.7c0,0-0.4-0.1-0.9,0.6l-5.6,7.9
	c-0.1,0.2-0.3,0.2-0.4,0.2c-0.1,0-0.3-0.1-0.4-0.2l-5.6-7.9c-0.5-0.7-0.9-0.6-0.9-0.6c-0.3,0-0.6,0.3-0.7,0.7l-4,15.5
	c-0.2,0.7-0.4,1.1-1,1.4c-0.4,0.2-0.4,0.5-0.4,0.5s0,0.4,0.3,0.4l5.1,0c0.4,0,0.8-0.3,0.9-0.7l1.5-5.7c0.1-0.4,0.4-0.4,0.6-0.1
	l4.1,5.8c0.1,0.2,0.3,0.2,0.4,0.2c0.1,0,0.3-0.1,0.4-0.2l4.1-5.8c0.2-0.3,0.5-0.3,0.6,0.1l1.5,5.7c0.1,0.4,0.5,0.7,0.9,0.7l5.1,0
	c0.3,0,0.3-0.4,0.3-0.4S50.6,25.5,50.3,25.3z"/>
<circle class="st1" cx="60.5" cy="16.9" r="2.8"/>
</svg>
